<svg xmlns="http://www.w3.org/2000/svg" width="18" height="18" viewBox="0 0 18 18"><defs><style>.a{fill:#fff;}</style></defs><g transform="translate(-480 -919)"><circle cx="9" cy="9" r="9" transform="translate(480 919)"/><path class="a" d="M1324.068,1022.77a1.078,1.078,0,0,0,.963-1.072v-1.5a.49.49,0,0,1,.141-.343.523.523,0,0,1,.724-.017l3.928,3.635.026.026a.732.732,0,0,1-.026,1.055l-3.928,3.635a.521.521,0,0,1-.353.137.505.505,0,0,1-.512-.5v-1.5a1.078,1.078,0,0,0-.963-1.072l-3.278-.351a.9.9,0,0,1,0-1.787Z" transform="translate(-835.902 -96.015)"/></g></svg>