<svg xmlns="http://www.w3.org/2000/svg" width="38.877" height="38" viewBox="0 0 38.877 38"><path d="M1040.023,11439.714h-5.587a3.443,3.443,0,0,0-.315-1.28l-10-12a2,2,0,0,0-3.073,0l-10,12a2.628,2.628,0,0,0-.133,1.28h-5.769a2,2,0,0,0-1.94,2.485l4.242,16.97a6,6,0,0,0,5.821,4.545H1031.9a6,6,0,0,0,5.821-4.545l4.242-16.97a1.978,1.978,0,0,0,.06-.485A2,2,0,0,0,1040.023,11439.714Zm-17.438-8.876,7.4,8.876h-13.548Zm-6.965,26.74a2,2,0,0,1-2.45-1.414l-2.07-7.729a2,2,0,0,1,3.863-1.034l2.071,7.727A2,2,0,0,1,1015.62,11457.578Zm8.965-1.864a2,2,0,1,1-4,0v-8a2,2,0,1,1,4,0Zm9.484-7.278-2.07,7.729a2,2,0,1,1-3.864-1.036l2.071-7.727a2,2,0,0,1,3.863,1.034Z" transform="translate(-1003.146 -11425.714)"/></svg>