<svg xmlns="http://www.w3.org/2000/svg" width="18.483" height="23.104" viewBox="0 0 18.483 23.104"><defs><style>.a{fill:#fff;}</style></defs><path class="a" d="M-143.919,7988h9.1a1.734,1.734,0,0,1,1.119.41l5.5,4.654a1.733,1.733,0,0,1,.613,1.323v14.5c0,2.068-.024,2.214-2.145,2.214h-14.192c-2.122,0-2.146-.146-2.146-2.214v-18.677C-146.065,7988.146-146.041,7988-143.919,7988Zm1.32,10.4a1.155,1.155,0,0,0-1.155,1.154,1.156,1.156,0,0,0,1.155,1.156h8.086a1.156,1.156,0,0,0,1.155-1.156,1.154,1.154,0,0,0-1.155-1.154Zm0,4.62a1.156,1.156,0,0,0-1.155,1.155,1.155,1.155,0,0,0,1.155,1.155h3.466a1.155,1.155,0,0,0,1.155-1.155,1.155,1.155,0,0,0-1.155-1.155Z" transform="translate(146.065 -7988)"/></svg>