<svg xmlns="http://www.w3.org/2000/svg" width="24" height="23.104" viewBox="0 0 24 23.104"><defs><style>.a{fill:#fff;}</style></defs><path class="a" d="M-214.413,1384.668l10.029-6.129a1.334,1.334,0,0,1,1.391,0l10.029,6.129a2.667,2.667,0,0,1,1.276,2.275v11.838a2.667,2.667,0,0,1-2.667,2.667h-18.667a2.667,2.667,0,0,1-2.667-2.667v-11.838A2.667,2.667,0,0,1-214.413,1384.668Zm8.057,6.113a1.333,1.333,0,0,0-1.333,1.333v4a1.334,1.334,0,0,0,1.333,1.333h5.333a1.333,1.333,0,0,0,1.333-1.333v-4a1.333,1.333,0,0,0-1.333-1.333Z" transform="translate(215.689 -1378.344)"/></svg>