<svg xmlns="http://www.w3.org/2000/svg" width="39.459" height="39.458" viewBox="0 0 39.459 39.458"><defs><style>.a{isolation:isolate;}</style></defs><g transform="translate(-1552.688 -3770.787)"><path class="a" d="M1562.588,3777.858,1576.73,3792l-2.828,2.828-14.143-14.142h-6.071a1,1,0,0,1-.707-1.707l7.9-7.9a1,1,0,0,1,1.707.707Z"/><path d="M1583.8,3787.757l5.65,6.52a11.032,11.032,0,0,1,2.482,9.39l-.8,4a2,2,0,0,1-1.569,1.569l-4,.8a11.034,11.034,0,0,1-9.39-2.481l-6.52-5.651Zm-6.809,12.29a1.5,1.5,0,1,0-1.938,2.29l4.6,3.89a1.5,1.5,0,0,0,1.938-2.291Z"/></g></svg>