<svg xmlns="http://www.w3.org/2000/svg" width="38" height="38" viewBox="0 0 38 38"><g transform="translate(-1098 -266.125)"><path d="M1119.256,294.125h-4.512l-3.916,8.812a2,2,0,0,1-3.656-1.624l3.195-7.188H1099.5a1.5,1.5,0,0,1,0-3,1.5,1.5,0,0,0,1.5-1.5v-19a1.5,1.5,0,0,0-1.5-1.5,1.5,1.5,0,0,1,0-3h35a1.5,1.5,0,0,1,0,3,1.5,1.5,0,0,0-1.5,1.5v19a1.5,1.5,0,0,0,1.5,1.5,1.5,1.5,0,0,1,0,3h-10.867l3.195,7.188a2,2,0,0,1-3.656,1.624Zm-11.241-7.513,5.83-5.952,4.818,3.514a1.689,1.689,0,0,0,2.209-.187l7.714-7.875a1.775,1.775,0,0,0,0-2.475,1.69,1.69,0,0,0-2.424,0l-6.688,6.827-4.818-3.513a1.688,1.688,0,0,0-2.208.186l-6.858,7a1.777,1.777,0,0,0,0,2.475A1.689,1.689,0,0,0,1108.015,286.612Z"/></g></svg>