<svg xmlns="http://www.w3.org/2000/svg" width="25.233" height="23.656" viewBox="0 0 25.233 23.656"><defs><style>.a,.b{fill:#fff;}.b{isolation:isolate;}</style></defs><g transform="translate(140.065 -7796)"><path class="a" d="M-117.2,7796h-20.5a2.366,2.366,0,0,0-2.366,2.366,2.366,2.366,0,0,0,2.366,2.366h20.5a2.365,2.365,0,0,0,2.366-2.366A2.366,2.366,0,0,0-117.2,7796Z"/><path class="b" d="M-122.968,7820H-127.7a2.366,2.366,0,0,0-2.366,2.366,2.366,2.366,0,0,0,2.366,2.365h4.731a2.365,2.365,0,0,0,2.366-2.365A2.365,2.365,0,0,0-122.968,7820Z" transform="translate(-2.115 -5.075)"/><path class="b" d="M-119.506,7808H-133.7a2.366,2.366,0,0,0-2.366,2.365,2.366,2.366,0,0,0,2.366,2.366h14.194a2.365,2.365,0,0,0,2.366-2.366A2.365,2.365,0,0,0-119.506,7808Z" transform="translate(-0.846 -2.537)"/></g></svg>